<?xml version="1.0" encoding="utf-8"?>
<!-- Generator: Adobe Illustrator 24.0.0, SVG Export Plug-In . SVG Version: 6.00 Build 0)  -->
<svg version="1.1" id="Layer_1" xmlns="http://www.w3.org/2000/svg" xmlns:xlink="http://www.w3.org/1999/xlink" x="0px" y="0px"
	 viewBox="0 0 4111.3 1780.9" style="enable-background:new 0 0 4111.3 1780.9;" xml:space="preserve">
<style type="text/css">
	.st0{fill-rule:evenodd;clip-rule:evenodd;}
</style>
<g>
	<path d="M426.4,1503.4v-219.3H277.7v-101.6h422.2v101.6H551.3v219.3H426.4z M1050.9,1182.2L1050.9,1182.2
		c22.1,0,42.7,5.4,60.9,16.5c18.3,10.8,32.9,25.5,44,43.7c10.8,18.3,16.2,38.6,16.2,61.2l0,0c0,24.2-6.4,46-19.3,65.3
		c-12.6,19.5-29.6,34.2-50.7,44.2l69.9,90h-133.2l-60.2-78.4H866.6v78.4h-125v-320.9H1050.9z M866.8,1276.1L866.8,1276.1v54.8h152.5
		c7.7,0,14.1-2.8,19.5-8c5.4-5.4,8-11.8,8-19.3c0-7.7-2.6-14.1-8-19.5s-11.8-8-19.5-8H866.8z M1383.9,1370.2h88.2l-44-94.9
		L1383.9,1370.2z M1353.6,1182.4h148.9l172,320.9h-140.9l-25.2-55h-160.7l-25.2,55h-140.9L1353.6,1182.4z M1809,1181.9v320.9h-125
		v-320.9H1809z M2188.3,1181.9h125.4v320.9h-140.9l-172.3-195.9v195.9h-125v-320.9h172l140.7,170v-170H2188.3z"/>
	<path d="M2515.6,1182.7h391.1v101.6h-266.1v39.3h235v93.6h-235v86.1h-125V1182.7z M3147.6,1174.4L3147.6,1174.4
		c30.3,0,58.6,2.3,85.1,7.5c26.5,4.9,49.9,13.4,69.7,25.2c20.1,11.8,35.7,28,47.1,48.1c11.3,20.3,17.2,45.5,17.2,75.9v23.1
		c0,30.3-5.9,55.5-17.2,75.6s-27,36.3-47.1,48.1c-19.8,12.1-43.2,20.6-69.7,25.5c-26.5,5.1-54.8,7.5-85.1,7.5l0,0
		c-30.1,0-58.6-2.3-85.1-7.5c-26.5-4.9-49.9-13.4-69.7-25.5c-20.1-11.8-35.7-28-47.1-48.1c-11.6-20.1-17-45.3-17-75.6v-23.2
		c0-30.3,5.4-55.5,17-75.9c11.3-20.1,27-36.3,47.1-48.1c19.8-11.8,43.2-20.3,69.7-25.2C3089,1176.8,3117.5,1174.4,3147.6,1174.4
		L3147.6,1174.4z M3241.5,1346.4L3241.5,1346.4v-8c0-17.2-4.1-30.3-12.6-39.1c-8.5-9.3-19.8-15.2-33.9-18.5
		c-14.4-3.3-30.1-4.9-47.3-4.9l0,0c-17.2,0-33.2,1.5-47.3,4.9c-14.1,3.3-25.5,9.3-33.9,18.5c-8.5,8.7-12.6,21.9-12.6,39.1v8
		c0,17.2,4.1,30.3,12.6,39.3s19.8,15.2,33.9,18.5c14.1,3.3,30.1,4.9,47.3,4.9l0,0c17.2,0,32.9-1.5,47.3-4.9
		c14.1-3.3,25.5-9.5,33.9-18.5C3237.4,1376.9,3241.5,1363.7,3241.5,1346.4L3241.5,1346.4z M3712.6,1182.4L3712.6,1182.4
		c22.4,0,42.7,5.4,60.9,16.5c18.5,10.8,33.2,25.5,44,43.7c11.1,18.3,16.5,38.6,16.5,61.2l0,0c0,24.2-6.4,46-19.3,65.3
		c-12.9,19.5-29.8,34.2-50.7,44.2l69.9,90h-133.2l-60.4-78.4h-111.6v78.4h-125v-320.9H3712.6z M3528.7,1276.3L3528.7,1276.3v54.8
		h152.5c7.7,0,14.1-2.8,19.5-8.2c5.1-5.1,8-11.6,8-19c0-7.7-2.8-14.1-8-19.5c-5.4-5.4-11.8-8-19.5-8h-152.5V1276.3z"/>
	<path class="st0" d="M0-0.4h4111.3v1780.9H0V-0.4z M2862.2,710.1V414.9h-200.3V277.8h569v137.1h-200.3v295.2H2862.2z M3539,266.5
		L3539,266.5c40.6,0,78.9,3.6,114.7,10.3c35.7,6.7,66.9,18,93.9,33.9s48.1,37.5,63.3,64.8c15.4,27.3,23.1,61.2,23.1,102.1V509
		c0,40.9-7.7,74.6-23.1,101.8c-15.2,27-36.3,48.6-63.3,64.8c-27,15.9-58.1,27.5-93.9,34.2c-35.7,6.7-74.1,10.3-114.7,10.3l0,0
		c-40.6,0-78.9-3.6-114.7-10.3c-36-6.7-67.4-18.3-94.1-34.2c-27-16.2-48.1-37.8-63.5-64.8c-15.2-27.3-22.9-60.9-22.9-101.8v-31.4
		c0-40.9,7.7-74.8,22.9-102.1c15.4-27.3,36.5-48.9,63.5-64.8c26.7-15.9,58.1-27.3,94.1-33.9C3460,270.1,3498.4,266.5,3539,266.5
		L3539,266.5z M3665.2,498.4L3665.2,498.4v-10.8c0-22.9-5.4-40.6-17-52.7c-11.3-12.1-26.7-20.3-45.8-24.7
		c-19.3-4.4-40.4-6.7-63.5-6.7l0,0c-23.4,0-44.7,2.3-63.8,6.7c-19.3,4.4-34.5,12.6-45.8,24.7c-11.3,12.1-17.2,29.8-17.2,52.7v10.8
		c0,23.4,5.9,41.1,17.2,53.2c11.3,12.1,26.5,20.3,45.8,24.7c19,4.4,40.4,6.7,63.8,6.7l0,0c23.1,0,44.2-2.3,63.5-6.7
		c19-4.4,34.5-12.6,45.8-24.7C3659.8,539.6,3665.2,521.9,3665.2,498.4L3665.2,498.4z M446.2,561.7v147.6H277.7v-432h168.4v147.3h253
		V277.3H868v432H699.1V561.7H446.2z M1223,266.5L1223,266.5c40.6,0,78.9,3.6,114.7,10.3c35.7,6.7,67.1,18,93.9,33.9
		c27,15.9,48.1,37.5,63.3,64.8c15.4,27.3,23.1,61.2,23.1,102.1V509c0,40.9-7.7,74.6-23.1,101.8c-15.2,27-36.3,48.6-63.3,64.8
		c-26.7,15.9-58.1,27.5-93.9,34.2s-74.1,10.3-114.7,10.3l0,0c-40.6,0-78.9-3.6-114.7-10.3s-67.4-18.3-94.1-34.2
		c-27-16.2-48.1-37.8-63.3-64.8c-15.4-27.3-23.1-60.9-23.1-101.8v-31.4c0-40.9,7.7-74.8,23.1-102.1c15.2-27.3,36.3-48.9,63.3-64.8
		c26.7-15.9,58.4-27.3,94.1-33.9C1144,270.1,1182.3,266.5,1223,266.5L1223,266.5z M1349.2,498.4L1349.2,498.4v-10.8
		c0-22.9-5.4-40.6-17-52.7c-11.3-12.1-26.5-20.3-45.8-24.7c-19-4.4-40.4-6.7-63.5-6.7l0,0c-23.4,0-44.7,2.3-63.8,6.7
		c-19.3,4.4-34.5,12.6-45.8,24.7c-11.3,12.1-17,29.8-17,52.7v10.8c0,23.4,5.7,41.1,17,53.2c11.3,12.1,26.5,20.3,45.8,24.7
		c19,4.4,40.4,6.7,63.8,6.7l0,0c23.1,0,44.5-2.3,63.5-6.7c19.3-4.4,34.5-12.6,45.8-24.7C1343.8,539.6,1349.2,521.9,1349.2,498.4
		L1349.2,498.4z M2274.9,277.9h189.8l-189.8,432.2h-200.3l-94.9-216.3l-94.9,216.3h-200.3l-189.8-432.2h189.8l99.8,273.6
		l100.5-273.6h189.8l99.8,273.6L2274.9,277.9z M82.3,986.9h3946.8v711.2H82.3V986.9z"/>
</g>
</svg>
